<!DOCTYPE svg PUBLIC "-//W3C//DTD SVG 1.1//EN" "http://www.w3.org/Graphics/SVG/1.1/DTD/svg11.dtd">
<!-- Uploaded to: SVG Repo, www.svgrepo.com, Transformed by: SVG Repo Mixer Tools -->
<svg fill="#3639ae" height="219px" width="219px" version="1.1" id="Layer_1" xmlns="http://www.w3.org/2000/svg" xmlns:xlink="http://www.w3.org/1999/xlink" viewBox="-45.5 -45.5 546.00 546.00" xml:space="preserve" stroke="#3639ae" stroke-width="15.015">
<g id="SVGRepo_bgCarrier" stroke-width="0" transform="translate(0,0), scale(1)"/>
<g id="SVGRepo_tracerCarrier" stroke-linecap="round" stroke-linejoin="round" stroke="#CCCCCC" stroke-width="1.8199999999999998"/>
<g id="SVGRepo_iconCarrier"> <path style="fill-rule:evenodd;clip-rule:evenodd;" d="M0,0v455h455V0H0z M140.599,297.5C101.601,297.5,70,266.158,70,227.517 c0-38.675,31.601-70.018,70.599-70.018c38.981,0,70.582,31.343,70.582,70.018C211.181,266.158,179.581,297.5,140.599,297.5z M314.401,297.5c-38.981,0-70.582-31.343-70.582-69.983c0-38.675,31.601-70.018,70.582-70.018c38.999,0,70.599,31.343,70.599,70.018 C385,266.158,353.399,297.5,314.401,297.5z"/> </g>
</svg>